<svg width="176" height="57" viewBox="0 0 176 57" fill="none" xmlns="http://www.w3.org/2000/svg">
<path d="M9.456 9.928L10.08 10.048V34H1.728V2.32H13.056L24.504 26.224L23.904 26.344V2.32H32.232V34H20.856L9.456 9.928ZM47.9633 26.704L52.7873 14.296H61.0913L47.4353 43.984H38.9633L43.5473 34L35.2912 14.296H43.7153L47.9633 26.704ZM70.6988 34H62.2028V14.296H70.6988V17.2H70.5788C70.7388 16.848 71.0588 16.4 71.5388 15.856C72.0348 15.312 72.7228 14.824 73.6028 14.392C74.4988 13.944 75.6108 13.72 76.9388 13.72C77.8348 13.72 78.6828 13.864 79.4828 14.152C80.2828 14.44 80.8668 14.72 81.2348 14.992L77.9708 21.88C77.7628 21.576 77.3708 21.272 76.7948 20.968C76.2188 20.648 75.5068 20.488 74.6588 20.488C73.6988 20.488 72.9228 20.704 72.3308 21.136C71.7548 21.552 71.3388 22.072 71.0828 22.696C70.8268 23.32 70.6988 23.92 70.6988 24.496V34ZM97.4273 34V31.048C97.2673 31.352 96.9073 31.792 96.3473 32.368C95.7873 32.928 95.0433 33.44 94.1153 33.904C93.2033 34.352 92.1313 34.576 90.8993 34.576C88.9473 34.576 87.2593 34.096 85.8353 33.136C84.4113 32.176 83.3073 30.904 82.5233 29.32C81.7553 27.736 81.3713 26.016 81.3713 24.16C81.3713 22.304 81.7553 20.584 82.5233 19C83.3073 17.416 84.4113 16.144 85.8353 15.184C87.2593 14.208 88.9473 13.72 90.8993 13.72C92.0673 13.72 93.0833 13.896 93.9473 14.248C94.8273 14.6 95.5473 15.016 96.1073 15.496C96.6833 15.976 97.0913 16.432 97.3313 16.864V14.296H105.779V34H97.4273ZM89.6993 24.16C89.6993 24.864 89.8673 25.512 90.2033 26.104C90.5393 26.68 90.9953 27.136 91.5713 27.472C92.1473 27.808 92.8033 27.976 93.5393 27.976C94.2753 27.976 94.9233 27.808 95.4833 27.472C96.0593 27.136 96.5073 26.68 96.8273 26.104C97.1633 25.512 97.3313 24.864 97.3313 24.16C97.3313 23.456 97.1633 22.816 96.8273 22.24C96.5073 21.648 96.0593 21.184 95.4833 20.848C94.9233 20.496 94.2753 20.32 93.5393 20.32C92.8033 20.32 92.1473 20.496 91.5713 20.848C90.9953 21.184 90.5393 21.648 90.2033 22.24C89.8673 22.816 89.6993 23.456 89.6993 24.16ZM124.05 14.296H133.53L124.554 23.704L134.586 34H124.866L117.858 26.392V34H109.362V0.975999H117.858V20.776L124.05 14.296ZM144.208 23.104C144.208 24.48 144.448 25.584 144.928 26.416C145.408 27.232 146.264 27.64 147.496 27.64C148.744 27.64 149.608 27.232 150.088 26.416C150.568 25.584 150.808 24.48 150.808 23.104V14.296H159.16V23.968C159.16 26.144 158.704 28.032 157.792 29.632C156.88 31.216 155.552 32.44 153.808 33.304C152.08 34.152 149.976 34.576 147.496 34.576C145.032 34.576 142.936 34.152 141.208 33.304C139.48 32.44 138.152 31.216 137.224 29.632C136.312 28.032 135.856 26.144 135.856 23.968V14.296H144.208V23.104ZM168.185 34.576C166.873 34.576 165.745 34.112 164.801 33.184C163.873 32.24 163.409 31.112 163.409 29.8C163.409 28.456 163.873 27.32 164.801 26.392C165.745 25.448 166.873 24.976 168.185 24.976C169.513 24.976 170.641 25.448 171.569 26.392C172.513 27.32 172.985 28.456 172.985 29.8C172.985 31.112 172.513 32.24 171.569 33.184C170.641 34.112 169.513 34.576 168.185 34.576Z" fill="#272728"/>
<path d="M53.32 48.57L51.16 53.65C51.1133 53.7767 51.04 53.8767 50.94 53.95C50.8467 54.0167 50.7433 54.05 50.63 54.05C50.45 54.05 50.3167 54 50.23 53.9C50.1433 53.8 50.1 53.6767 50.1 53.53C50.1 53.47 50.11 53.4067 50.13 53.34L52.62 47.36C52.6733 47.2267 52.7533 47.1233 52.86 47.05C52.9733 46.9767 53.0933 46.9467 53.22 46.96C53.34 46.96 53.45 46.9967 53.55 47.07C53.6567 47.1367 53.7333 47.2333 53.78 47.36L56.24 53.22C56.2733 53.3067 56.29 53.3867 56.29 53.46C56.29 53.64 56.23 53.7833 56.11 53.89C55.9967 53.9967 55.87 54.05 55.73 54.05C55.61 54.05 55.5 54.0133 55.4 53.94C55.3067 53.8667 55.2333 53.7667 55.18 53.64L53.03 48.63L53.32 48.57ZM51.47 52.43L52.02 51.28H54.72L54.91 52.43H51.47ZM70.1367 47C70.6167 47 71.0434 47.09 71.4167 47.27C71.7901 47.45 72.1034 47.7033 72.3567 48.03C72.6167 48.35 72.8101 48.7233 72.9367 49.15C73.0701 49.57 73.1367 50.02 73.1367 50.5C73.1367 51.1467 73.0201 51.7367 72.7867 52.27C72.5534 52.7967 72.2134 53.2167 71.7667 53.53C71.3267 53.8433 70.7834 54 70.1367 54H67.7467C67.5734 54 67.4267 53.9433 67.3067 53.83C67.1934 53.71 67.1367 53.5633 67.1367 53.39V47.61C67.1367 47.4367 67.1934 47.2933 67.3067 47.18C67.4267 47.06 67.5734 47 67.7467 47H70.1367ZM70.0367 52.85C70.4567 52.85 70.8001 52.7433 71.0667 52.53C71.3334 52.31 71.5267 52.0233 71.6467 51.67C71.7734 51.31 71.8367 50.92 71.8367 50.5C71.8367 50.1867 71.8001 49.89 71.7267 49.61C71.6601 49.3233 71.5534 49.0733 71.4067 48.86C71.2601 48.64 71.0734 48.4667 70.8467 48.34C70.6201 48.2133 70.3501 48.15 70.0367 48.15H68.2867L68.3867 48.06V52.96L68.3267 52.85H70.0367ZM84.9152 46.99C85.0085 46.99 85.1052 47.0167 85.2052 47.07C85.3118 47.1167 85.3918 47.18 85.4452 47.26L87.8752 51L87.3752 50.98L89.8652 47.26C89.9918 47.08 90.1552 46.99 90.3552 46.99C90.5152 46.99 90.6585 47.0467 90.7852 47.16C90.9118 47.2733 90.9752 47.42 90.9752 47.6V53.39C90.9752 53.5633 90.9185 53.71 90.8052 53.83C90.6918 53.9433 90.5418 54 90.3552 54C90.1685 54 90.0152 53.9433 89.8952 53.83C89.7818 53.71 89.7252 53.5633 89.7252 53.39V48.68L90.1152 48.77L88.0752 51.88C88.0152 51.9533 87.9385 52.0167 87.8452 52.07C87.7585 52.1233 87.6685 52.1467 87.5752 52.14C87.4885 52.1467 87.3985 52.1233 87.3052 52.07C87.2185 52.0167 87.1452 51.9533 87.0852 51.88L85.1752 48.86L85.4352 48.33V53.39C85.4352 53.5633 85.3818 53.71 85.2752 53.83C85.1685 53.9433 85.0285 54 84.8552 54C84.6885 54 84.5518 53.9433 84.4452 53.83C84.3385 53.71 84.2852 53.5633 84.2852 53.39V47.6C84.2852 47.4333 84.3452 47.29 84.4652 47.17C84.5918 47.05 84.7418 46.99 84.9152 46.99ZM103.729 53.39C103.729 53.5633 103.665 53.71 103.539 53.83C103.412 53.9433 103.265 54 103.099 54C102.912 54 102.762 53.9433 102.649 53.83C102.535 53.71 102.479 53.5633 102.479 53.39V47.61C102.479 47.4367 102.539 47.2933 102.659 47.18C102.779 47.06 102.932 47 103.119 47C103.279 47 103.419 47.06 103.539 47.18C103.665 47.2933 103.729 47.4367 103.729 47.61V53.39ZM120.542 47C120.702 47 120.832 47.0533 120.932 47.16C121.032 47.2667 121.082 47.4 121.082 47.56V53.39C121.082 53.5633 121.022 53.71 120.902 53.83C120.789 53.9433 120.646 54 120.472 54C120.386 54 120.296 53.9867 120.202 53.96C120.116 53.9267 120.049 53.8833 120.002 53.83L116.072 48.84L116.332 48.68V53.44C116.332 53.6 116.279 53.7333 116.172 53.84C116.072 53.9467 115.939 54 115.772 54C115.612 54 115.482 53.9467 115.382 53.84C115.282 53.7333 115.232 53.6 115.232 53.44V47.61C115.232 47.4367 115.289 47.2933 115.402 47.18C115.522 47.06 115.669 47 115.842 47C115.936 47 116.032 47.02 116.132 47.06C116.232 47.0933 116.306 47.1467 116.352 47.22L120.162 52.08L119.992 52.2V47.56C119.992 47.4 120.042 47.2667 120.142 47.16C120.242 47.0533 120.376 47 120.542 47Z" fill="#272728"/>
</svg>
