<svg width="300" height="292" viewBox="0 0 300 292" fill="none" xmlns="http://www.w3.org/2000/svg">
<g clip-path="url(#clip0_2381_57212)">
<path d="M191.345 65.4558H175.382V201.389C175.382 203.522 174.962 205.633 174.145 207.604C173.328 209.574 172.13 211.365 170.62 212.873C169.11 214.381 167.318 215.577 165.345 216.393C163.373 217.209 161.258 217.629 159.123 217.629H37.085V217.785C37.085 219.918 37.5055 222.03 38.3226 224C39.1397 225.97 40.3373 227.761 41.8471 229.269C43.3569 230.777 45.1493 231.973 47.122 232.789C49.0946 233.605 51.2089 234.025 53.344 234.025H191.345C193.48 234.025 195.594 233.605 197.567 232.789C199.539 231.973 201.332 230.777 202.841 229.269C204.351 227.761 205.549 225.97 206.366 224C207.183 222.03 207.604 219.918 207.604 217.785V81.6964C207.604 77.3891 205.891 73.2583 202.841 70.2126C199.792 67.1669 195.657 65.4558 191.345 65.4558V65.4558Z" fill="#F2F2F2"/>
<path d="M267.013 281.474C267.296 281.487 267.576 281.413 267.815 281.262C268.054 281.111 268.24 280.89 268.35 280.629C268.459 280.369 268.485 280.081 268.425 279.805C268.365 279.529 268.221 279.278 268.013 279.086L267.919 278.71C267.931 278.68 267.944 278.65 267.956 278.62C268.241 277.949 268.718 277.376 269.327 276.974C269.937 276.572 270.652 276.36 271.382 276.362C272.112 276.365 272.825 276.583 273.432 276.989C274.038 277.396 274.511 277.972 274.79 278.646C275.908 281.335 277.331 284.028 277.682 286.871C277.836 288.128 277.771 289.402 277.489 290.637C280.115 284.916 281.478 278.699 281.487 272.406C281.487 270.827 281.399 269.249 281.224 267.68C281.078 266.394 280.877 265.116 280.619 263.848C279.212 256.967 276.191 250.518 271.804 245.029C269.68 243.872 267.963 242.093 266.883 239.93C266.492 239.153 266.216 238.324 266.063 237.467C266.302 237.499 266.966 233.855 266.785 233.631C267.119 233.125 267.716 232.874 268.081 232.38C269.894 229.925 272.392 230.354 273.696 233.69C276.482 235.095 276.509 237.424 274.8 239.664C273.712 241.089 273.563 243.017 272.608 244.543C272.707 244.668 272.809 244.79 272.907 244.916C274.701 247.22 276.265 249.695 277.577 252.305C277.258 249.382 277.638 246.424 278.687 243.676C279.75 241.115 281.742 238.958 283.496 236.744C283.96 236.15 284.59 235.706 285.307 235.468C286.023 235.231 286.794 235.212 287.522 235.412C288.25 235.612 288.901 236.024 289.395 236.594C289.889 237.165 290.202 237.868 290.295 238.617C290.299 238.649 290.303 238.682 290.306 238.715C290.045 238.861 289.79 239.017 289.541 239.182C289.227 239.391 288.984 239.69 288.844 240.04C288.703 240.389 288.672 240.773 288.753 241.141C288.835 241.508 289.026 241.843 289.301 242.1C289.576 242.358 289.923 242.526 290.295 242.584L290.333 242.59C290.241 243.528 290.077 244.457 289.843 245.371C292.093 254.064 287.234 257.23 280.297 257.373C280.144 257.451 279.995 257.529 279.841 257.604C281.159 261.333 281.985 265.217 282.299 269.159C282.478 271.484 282.467 273.82 282.268 276.144L282.28 276.062C282.783 273.478 284.163 271.146 286.187 269.461C289.194 266.994 293.441 266.085 296.685 264.102C297.03 263.881 297.431 263.763 297.84 263.762C298.25 263.761 298.651 263.877 298.997 264.097C299.343 264.316 299.619 264.63 299.792 265C299.965 265.371 300.029 265.784 299.975 266.189L299.962 266.276C299.478 266.473 299.007 266.699 298.552 266.954C298.291 267.101 298.036 267.257 297.787 267.422C297.473 267.631 297.23 267.93 297.09 268.28C296.949 268.629 296.918 269.013 296.999 269.381C297.081 269.748 297.272 270.083 297.547 270.34C297.822 270.598 298.169 270.766 298.541 270.824L298.579 270.83C298.607 270.834 298.631 270.837 298.658 270.841C297.832 272.812 296.672 274.626 295.23 276.203C293.823 283.792 287.779 284.512 281.314 282.302H281.31C280.601 285.381 279.573 288.378 278.243 291.245H267.288C267.249 291.123 267.213 290.998 267.178 290.876C268.192 290.94 269.21 290.879 270.209 290.696C269.396 289.699 268.584 288.695 267.771 287.699C267.753 287.68 267.736 287.661 267.72 287.64C267.307 287.13 266.891 286.624 266.479 286.115L266.479 286.114C266.457 284.551 266.636 282.992 267.013 281.475L267.013 281.474Z" fill="#F2F2F2"/>
<path d="M146.349 46.9651C146.749 47.5704 147.275 48.0817 147.893 48.4637C148.51 48.8456 149.203 49.089 149.924 49.1771C150.644 49.2653 151.376 49.1959 152.067 48.974C152.758 48.752 153.393 48.3828 153.927 47.8917L176.704 58.156L181.095 52.5612L153.954 40.5676C153.059 39.7307 151.888 39.2506 150.663 39.2183C149.438 39.186 148.244 39.6037 147.306 40.3923C146.369 41.1808 145.754 42.2855 145.577 43.4969C145.401 44.7084 145.675 45.9424 146.349 46.9651H146.349Z" fill="#FFCBA5"/>
<path d="M244.097 53.3655L246.356 66.1521C246.461 66.7487 246.441 67.3606 246.295 67.9487C246.15 68.5368 245.883 69.088 245.512 69.567C245.141 70.046 244.673 70.4421 244.14 70.73C243.606 71.0179 243.018 71.1911 242.413 71.2386L204.028 74.2537L158.908 54.0832L164.297 43.8647L203.466 56.2542L244.097 53.3655Z" fill="#6A00BF"/>
<path d="M154.26 44.2017H16.2591C7.27944 44.2017 0 51.4728 0 60.4423V196.531C0 205.5 7.27944 212.771 16.2591 212.771H154.26C163.239 212.771 170.519 205.5 170.519 196.531V60.4423C170.519 51.4728 163.239 44.2017 154.26 44.2017Z" fill="#F2F2F2"/>
<path d="M16.2591 47.5415C14.5631 47.5415 12.8836 47.8752 11.3166 48.5235C9.74966 49.1718 8.32588 50.1221 7.12658 51.32C5.92727 52.518 4.97592 53.9401 4.32686 55.5053C3.67781 57.0705 3.34375 58.7481 3.34375 60.4422V196.531C3.34375 199.952 4.70447 203.234 7.12658 205.653C9.54868 208.072 12.8338 209.432 16.2591 209.432H104.334C112.587 209.432 120.758 207.808 128.382 204.653C136.007 201.499 142.934 196.876 148.769 191.047C154.605 185.218 159.233 178.299 162.391 170.683C165.549 163.068 167.175 154.905 167.175 146.662V60.4422C167.175 58.7481 166.841 57.0705 166.192 55.5053C165.543 53.9401 164.591 52.518 163.392 51.32C162.193 50.1221 160.769 49.1718 159.202 48.5235C157.635 47.8752 155.956 47.5415 154.259 47.5415H16.2591Z" fill="white"/>
<path d="M123.837 88.8422H46.3801C45.6693 88.8422 44.9877 88.5601 44.4851 88.0581C43.9825 87.5561 43.7002 86.8753 43.7002 86.1653C43.7002 85.4554 43.9825 84.7745 44.4851 84.2725C44.9877 83.7705 45.6693 83.4885 46.3801 83.4885H123.837C124.548 83.4885 125.229 83.7705 125.732 84.2725C126.234 84.7745 126.517 85.4554 126.517 86.1653C126.517 86.8753 126.234 87.5561 125.732 88.0581C125.229 88.5601 124.548 88.8422 123.837 88.8422Z" fill="#F2F2F2"/>
<path d="M123.837 145.925H46.3801C45.6693 145.925 44.9877 145.643 44.4851 145.141C43.9825 144.639 43.7002 143.958 43.7002 143.248C43.7002 142.538 43.9825 141.857 44.4851 141.355C44.9877 140.853 45.6693 140.571 46.3801 140.571H123.837C124.548 140.571 125.229 140.853 125.732 141.355C126.234 141.857 126.517 142.538 126.517 143.248C126.517 143.958 126.234 144.639 125.732 145.141C125.229 145.643 124.548 145.925 123.837 145.925Z" fill="#F2F2F2"/>
<path d="M155.29 117.402H14.9264C14.2157 117.402 13.5341 117.12 13.0315 116.618C12.5289 116.116 12.2466 115.435 12.2466 114.725C12.2466 114.015 12.5289 113.335 13.0315 112.833C13.5341 112.331 14.2157 112.049 14.9264 112.049H155.29C156.001 112.049 156.683 112.331 157.185 112.833C157.688 113.335 157.97 114.015 157.97 114.725C157.97 115.435 157.688 116.116 157.185 116.618C156.683 117.12 156.001 117.402 155.29 117.402V117.402Z" fill="#F2F2F2"/>
<path d="M239.248 109.724L225.265 139.48L279.054 134.038L267.826 105.473L239.248 109.724Z" fill="#FFCBA5"/>
<path d="M251.753 280.748L246.653 280.705L244.396 260.598L251.922 260.662L251.753 280.748Z" fill="#FFCBA5"/>
<path d="M235.417 288.849C235.413 289.453 235.648 290.034 236.072 290.465C236.496 290.895 237.073 291.14 237.678 291.146L247.817 291.231L249.593 287.637L250.245 291.249L254.07 291.284L253.104 278.4L251.773 278.311L246.344 277.937L244.592 277.82L244.562 281.466L236.416 286.984C236.111 287.191 235.861 287.469 235.687 287.794C235.513 288.118 235.42 288.481 235.417 288.849V288.849Z" fill="#2F2E41"/>
<path d="M195.314 280.772L190.451 279.234L194.208 259.352L201.384 261.621L195.314 280.772Z" fill="#FFCBA5"/>
<path d="M177.317 283.72C177.135 284.296 177.189 284.921 177.467 285.457C177.746 285.993 178.225 286.397 178.802 286.58L188.469 289.636L191.223 286.722L190.784 290.366L194.43 291.522L197.297 278.923L196.05 278.448L190.971 276.497L189.331 275.871L188.229 279.347L178.82 282.231C178.468 282.339 178.147 282.531 177.885 282.791C177.623 283.05 177.428 283.369 177.317 283.72V283.72Z" fill="#2F2E41"/>
<path d="M276.604 125.67L227.697 134.622C227.697 134.622 219.852 140.483 221.95 142.582C224.049 144.681 224.374 144.356 222.996 145.733C221.617 147.11 218.636 148.951 218.607 150.156C218.577 151.361 196.691 205.407 196.691 205.407C196.691 205.407 199.123 204.193 197.299 206.015C195.475 207.836 195.475 209.342 195.475 209.342L186.964 266.741L200.787 267.554L214.322 215.224L244.512 166.337C244.512 166.337 247.508 209.932 247.633 212.831C247.759 215.731 249.583 212.087 247.759 215.731C245.935 219.374 244.719 216.945 245.935 219.374C247.151 221.803 241.555 271.255 241.555 271.255H254.172L281.232 168.755C281.232 168.755 290.859 139.452 276.604 125.67Z" fill="#2F2E41"/>
<path d="M262.197 43.6829L242.606 41.6497L237.53 48.2319L231.617 51.3777C229.114 52.7089 227.049 54.7319 225.667 57.2048C224.286 59.6776 223.647 62.4956 223.826 65.3218L230.736 105.473C230.736 105.473 224.899 118.602 228.912 121.869C232.925 125.137 225.81 133.229 234.384 129.156C242.958 125.083 279.98 129.764 279.98 129.764L272.077 107.295L277.981 85.2165L278.631 66.704C278.752 63.2447 277.724 59.8424 275.708 57.0275C273.691 54.2125 270.798 52.1432 267.481 51.1419L266.656 50.8927L262.197 43.6829Z" fill="#6A00BF"/>
<path d="M289.168 28.6811C289.296 34.1968 287.233 39.5377 284.268 44.2288C283.387 41.4902 281.804 38.9977 280.152 36.6217C280.985 41.7617 280.098 47.0325 277.629 51.6183C277.542 51.6805 277.452 51.7382 277.359 51.7913C274.943 53.2433 271.879 53.8314 269.265 52.7827C274.666 46.9672 275.353 37.3317 270.825 30.8086C269.543 28.9577 267.885 27.3206 267.091 25.2142C265.837 21.8533 267.042 18.1529 267.803 14.6488C268.513 11.3876 268.638 7.50669 266.448 5.11661C266.681 4.7826 267 4.51673 267.371 4.34624C267.742 4.17575 268.151 4.10677 268.557 4.14637C269.908 4.33692 270.891 5.50946 271.517 6.7171C272.143 7.9247 272.556 9.26314 273.428 10.3062C275.044 12.2586 277.796 12.7201 280.115 13.7491C285.731 16.2477 289.033 22.5436 289.168 28.6811Z" fill="#2F2E41"/>
<path d="M144.48 291.277C144.48 291.372 144.498 291.466 144.534 291.554C144.571 291.642 144.624 291.722 144.691 291.789C144.759 291.856 144.838 291.909 144.926 291.945C145.014 291.982 145.108 292 145.203 292H299.191C299.383 292 299.567 291.924 299.703 291.788C299.838 291.653 299.915 291.469 299.915 291.277C299.915 291.086 299.838 290.902 299.703 290.766C299.567 290.631 299.383 290.555 299.191 290.555H145.203C145.108 290.554 145.014 290.573 144.926 290.609C144.838 290.645 144.759 290.699 144.691 290.766C144.624 290.833 144.571 290.913 144.534 291C144.498 291.088 144.48 291.182 144.48 291.277Z" fill="#CCCCCC"/>
<path d="M290.38 156.52C293.402 156.52 295.852 154.073 295.852 151.055C295.852 148.036 293.402 145.589 290.38 145.589C287.359 145.589 284.909 148.036 284.909 151.055C284.909 154.073 287.359 156.52 290.38 156.52Z" fill="#6A00BF"/>
<path d="M241.895 25.5273C242.216 24.4053 240.004 31.2637 241.072 31.3875C245.933 31.9446 252.607 34.8447 255.993 36.1977C256.145 36.18 256.298 36.1623 256.446 36.1402C256.809 36.1004 257.163 36.043 257.513 35.9767C265.397 34.4866 268.429 22.3891 268.429 22.2786C268.429 21.7348 267.123 6.79773 265.064 6.57668C264.523 6.51808 263.98 6.48856 263.436 6.48825H258.328C257.271 6.26073 256.199 6.10562 255.121 6.02399H255.112C244.829 5.24137 236.72 11.5022 237.478 19.1205C237.483 19.1294 237.491 19.1382 237.496 19.1471C237.716 19.4743 237.909 19.7838 238.079 20.08C238.245 20.3586 238.384 20.6238 238.505 20.8759C239.442 22.8214 237.033 25.2694 238.631 25.7263C240.755 26.334 233.042 46.3085 241.453 46.3085C237.362 47.4703 241.01 28.6224 241.895 25.5273Z" fill="#2F2E41"/>
<path d="M251.075 37.2476C257.755 37.2476 263.17 31.8389 263.17 25.167C263.17 18.4951 257.755 13.0864 251.075 13.0864C244.396 13.0864 238.981 18.4951 238.981 25.167C238.981 31.8389 244.396 37.2476 251.075 37.2476Z" fill="#FFCBA5"/>
<path d="M237.478 19.7794C237.68 19.8855 237.877 19.9828 238.079 20.0801C238.29 20.1818 238.501 20.2835 238.711 20.3763C242.761 22.2113 246.057 22.4146 248.058 19.7794C248.111 18.3928 248.423 17.0283 248.977 15.7558C248.879 17.1779 249.254 18.5924 250.044 19.7794H254.072C258.22 22.5296 260.351 22.817 257.471 31.8457C256.668 34.3616 253.477 49.0013 254.732 51.1722C255.096 51.1324 258.96 35.0975 259.31 35.0312C267.194 33.5411 272.204 20.5664 271.563 19.8325C271.566 17.7453 271.085 15.6856 270.159 13.8148C268.987 11.4445 267.16 9.4591 264.894 8.09332C263.543 7.43913 262.135 6.91072 260.687 6.51483C260.651 6.50598 260.62 6.49713 260.584 6.4883C260.14 6.36891 259.687 6.25838 259.234 6.16552C258.298 5.96816 257.352 5.82496 256.399 5.73664C256.332 5.73221 256.265 5.72778 256.202 5.72778C255.822 5.72867 255.449 5.83095 255.121 6.02405C255.117 6.02405 255.117 6.02845 255.112 6.02845C254.878 6.16503 254.674 6.34692 254.511 6.56344C254.225 6.92777 254.07 7.37803 254.072 7.84127H249.587C249.421 7.84127 249.255 7.84569 249.089 7.85452C246.096 7.95669 243.249 9.17089 241.104 11.2595C238.96 13.3481 237.673 16.1608 237.496 19.1471C237.483 19.3594 237.478 19.5672 237.478 19.7794Z" fill="#2F2E41"/>
<path d="M263.921 15.9175C268.322 15.9175 271.889 12.3542 271.889 7.95875C271.889 3.56325 268.322 0 263.921 0C259.521 0 255.954 3.56325 255.954 7.95875C255.954 12.3542 259.521 15.9175 263.921 15.9175Z" fill="#2F2E41"/>
<path d="M290.442 153.308C290.831 152.696 291.082 152.006 291.178 151.287C291.273 150.568 291.212 149.837 290.997 149.144C290.782 148.452 290.419 147.814 289.933 147.275C289.447 146.736 288.85 146.309 288.182 146.023L288.222 121.064L281.313 119.356L281.483 149.001C281.085 150.159 281.127 151.422 281.599 152.552C282.072 153.681 282.943 154.598 284.047 155.129C285.151 155.66 286.412 155.768 287.591 155.432C288.77 155.097 289.784 154.341 290.442 153.308V153.308Z" fill="#FFCBA5"/>
<path d="M256.229 61.6231L266.98 54.3248C267.482 53.9843 268.049 53.7524 268.646 53.6438C269.242 53.5353 269.855 53.5525 270.445 53.6945C271.034 53.8365 271.587 54.1 272.069 54.4682C272.551 54.8364 272.95 55.3011 273.241 55.8325L291.725 89.5711L291.795 138.948L280.255 138.225L275.518 97.4601L256.229 61.6231Z" fill="#6A00BF"/>
<path d="M173.658 173.602H58.7558C56.2566 173.602 53.8597 174.594 52.0925 176.359C50.3253 178.124 49.3325 180.518 49.3325 183.015C49.3325 185.511 50.3253 187.905 52.0925 189.67C53.8597 191.435 56.2566 192.427 58.7558 192.427H173.658C176.158 192.427 178.554 191.435 180.322 189.67C182.089 187.905 183.082 185.511 183.082 183.015C183.082 180.518 182.089 178.124 180.322 176.359C178.554 174.594 176.158 173.602 173.658 173.602V173.602Z" fill="white"/>
<path d="M173.658 193.034H58.7558C56.0954 193.034 53.5439 191.979 51.6627 190.1C49.7815 188.221 48.7246 185.672 48.7246 183.015C48.7246 180.357 49.7815 177.809 51.6627 175.93C53.5439 174.051 56.0954 172.995 58.7558 172.995H173.658C176.319 172.995 178.87 174.051 180.752 175.93C182.633 177.809 183.69 180.357 183.69 183.015C183.69 185.672 182.633 188.221 180.752 190.1C178.87 191.979 176.319 193.034 173.658 193.034V193.034ZM58.7558 174.209C56.4178 174.209 54.1756 175.137 52.5224 176.788C50.8693 178.44 49.9405 180.679 49.9405 183.015C49.9405 185.35 50.8693 187.59 52.5224 189.241C54.1756 190.892 56.4178 191.82 58.7558 191.82H173.658C175.996 191.82 178.239 190.892 179.892 189.241C181.545 187.59 182.474 185.35 182.474 183.015C182.474 180.679 181.545 178.44 179.892 176.788C178.239 175.137 175.996 174.209 173.658 174.209H58.7558Z" fill="#6A00BF"/>
<path d="M180.434 214.679H129.727C129.016 214.679 128.334 214.397 127.832 213.895C127.329 213.393 127.047 212.712 127.047 212.002C127.047 211.292 127.329 210.611 127.832 210.109C128.334 209.607 129.016 209.325 129.727 209.325H180.434C181.144 209.325 181.826 209.607 182.329 210.109C182.831 210.611 183.114 211.292 183.114 212.002C183.114 212.712 182.831 213.393 182.329 213.895C181.826 214.397 181.144 214.679 180.434 214.679V214.679Z" fill="#6A00BF"/>
</g>
<defs>
<clipPath id="clip0_2381_57212">
<rect width="300" height="292" fill="white"/>
</clipPath>
</defs>
</svg>
