<svg width="70" height="50" viewBox="0 0 70 50" fill="none" xmlns="http://www.w3.org/2000/svg">
<rect width="70" height="50" rx="4" fill="#0060AF"/>
<path fill-rule="evenodd" clip-rule="evenodd" d="M14.3973 29.7913C14.3973 29.1203 14.405 27.3266 14.3875 27.1056C14.4028 24.4366 12.3442 22.5539 11.0436 22.7006C10.1437 22.7743 9.38933 23.1202 8.98453 24.1153C8.60904 25.0427 8.94476 26.2763 10.1926 26.5657C11.5268 26.8766 12.3062 27.1352 12.87 27.5001C13.561 27.9468 14.125 28.8003 14.14 29.7924" fill="white"/>
<path fill-rule="evenodd" clip-rule="evenodd" d="M13.8394 29.7923C13.8438 28.9321 13.3345 28.1715 12.6688 27.7628C12.0784 27.4015 11.2857 27.1643 10.0069 26.8584C9.61161 26.7631 9.19812 26.5514 9.07011 26.2815C8.73149 26.6031 8.66998 27.3262 8.72956 27.749C8.7988 28.2379 9.40502 29.0438 10.3178 29.0754C10.8753 29.0965 11.58 28.9623 11.918 28.8946C12.5011 28.7759 13.4235 29.1202 13.5704 29.7912" fill="white"/>
<path fill-rule="evenodd" clip-rule="evenodd" d="M14.8687 18.5408C13.3209 18.5408 11.9841 19.5029 11.9888 21.1679C11.9936 22.568 13.188 23.3175 13.6144 23.8528C14.2585 24.6596 14.6071 25.6144 14.6431 27.0755C14.6715 28.2384 14.67 29.3866 14.6763 29.7936H15.0178C15.012 29.3678 14.9966 28.1488 15.0141 27.0396C15.0373 25.578 15.3985 24.6596 16.0429 23.8528C16.4729 23.3175 17.6662 22.568 17.6688 21.1679C17.6748 19.5029 16.3385 18.5408 14.7922 18.5408" fill="white"/>
<path fill-rule="evenodd" clip-rule="evenodd" d="M15.2616 29.7913C15.2616 29.1203 15.2536 27.3266 15.2708 27.1056C15.2557 24.4366 17.313 22.5539 18.6147 22.7006C19.5146 22.7743 20.268 23.1202 20.6741 24.1153C21.0491 25.0427 20.7116 26.2763 19.4653 26.5657C18.1302 26.8766 17.352 27.1352 16.7866 27.5001C16.0965 27.9468 15.5719 28.8003 15.5558 29.7924" fill="white"/>
<path fill-rule="evenodd" clip-rule="evenodd" d="M15.8189 29.7923C15.8141 28.9321 16.3232 28.1715 16.9869 27.7628C17.5799 27.4015 18.3734 27.1643 19.6511 26.8584C20.0472 26.7631 20.4602 26.5514 20.5859 26.2815C20.9262 26.6031 20.9877 27.3262 20.9279 27.749C20.8574 28.2379 20.2526 29.0438 19.3414 29.0754C18.7843 29.0965 18.0757 28.9623 17.7392 28.8946C17.1584 28.7759 16.2333 29.1202 16.0858 29.7912" fill="white"/>
<path fill-rule="evenodd" clip-rule="evenodd" d="M16.296 32.5691L16.0981 31.2068L16.5762 31.1385C16.6925 31.1236 16.8342 31.1428 16.8908 31.2114C16.9535 31.2832 16.9726 31.3425 16.9847 31.4366C17.0029 31.5532 16.9672 31.6877 16.828 31.7548V31.7589C16.9833 31.7589 17.0771 31.8641 17.1045 32.0416C17.1084 32.0793 17.1203 32.1698 17.1084 32.2453C17.0768 32.4252 16.9631 32.4832 16.7709 32.5085L16.296 32.5691ZM16.6037 32.3253C16.6604 32.3176 16.7179 32.3147 16.7628 32.2877C16.8317 32.2453 16.8255 32.1549 16.8158 32.0875C16.792 31.9398 16.7511 31.8835 16.5847 31.9067L16.4801 31.9219L16.5464 32.3328L16.6037 32.3253ZM16.5037 31.6957C16.567 31.6862 16.6527 31.6789 16.6884 31.6223C16.7073 31.5845 16.7311 31.5544 16.7153 31.4703C16.6958 31.3708 16.6609 31.3088 16.5264 31.3328L16.4013 31.3518L16.4508 31.7009L16.5037 31.6957Z" fill="white"/>
<path fill-rule="evenodd" clip-rule="evenodd" d="M18.367 31.75C18.3707 31.7754 18.3751 31.8036 18.3767 31.829C18.4154 32.0773 18.367 32.2831 18.0708 32.3397C17.6326 32.4191 17.5488 32.1627 17.4718 31.8036L17.4307 31.6092C17.3704 31.2657 17.3444 31.0055 17.7714 30.9252C18.0122 30.8839 18.1712 30.9743 18.2374 31.2001C18.2477 31.2338 18.2606 31.267 18.2654 31.301L18.0035 31.352C17.9732 31.267 17.9331 31.1154 17.8152 31.1282C17.6037 31.1523 17.6735 31.4003 17.6953 31.5041L17.774 31.8771C17.7977 31.9899 17.8447 32.17 18.0278 32.1353C18.1764 32.1072 18.1115 31.8889 18.0983 31.7994" fill="white"/>
<path fill-rule="evenodd" clip-rule="evenodd" d="M18.7878 32.1621L18.6973 30.7524L19.0491 30.6511L19.787 31.8772L19.5099 31.9554L19.3351 31.6438L19.0274 31.7309L19.0671 32.0852L18.7878 32.1621ZM19.0016 31.5032L19.224 31.4425L18.9286 30.8721L19.0016 31.5032Z" fill="white"/>
<path fill-rule="evenodd" clip-rule="evenodd" d="M10.0938 31.0963C10.2039 30.7641 10.3025 30.5192 10.7229 30.6279C10.9478 30.6873 11.0873 30.7806 11.0807 31.027C11.0796 31.0818 11.0604 31.1378 11.0478 31.1918L10.7862 31.1238C10.8205 30.9877 10.8422 30.8797 10.6645 30.8281C10.459 30.775 10.4089 31.01 10.3806 31.1114L10.2741 31.4808C10.2403 31.5906 10.1998 31.7719 10.3806 31.8188C10.53 31.8566 10.6205 31.7185 10.6746 31.5166L10.4917 31.4708L10.555 31.2571L10.9854 31.3875L10.781 32.0998L10.583 32.0491L10.6276 31.8985H10.6219C10.5306 32.0218 10.4195 32.0347 10.3221 32.0169C9.89173 31.9073 9.93665 31.6422 10.0394 31.2879" fill="white"/>
<path fill-rule="evenodd" clip-rule="evenodd" d="M11.6958 31.698L11.5662 32.2775L11.2744 32.2182L11.5853 30.865L12.0827 30.9708C12.3738 31.0301 12.4618 31.1522 12.4205 31.4038C12.397 31.5482 12.3215 31.7036 12.1371 31.691L12.1352 31.6887C12.2911 31.74 12.3043 31.8143 12.2771 31.9422C12.2653 31.9969 12.1843 32.3274 12.2402 32.3809L12.2421 32.4216L11.9402 32.3472C11.9277 32.2557 11.9705 32.0908 11.9874 31.9994C12.0043 31.9187 12.0315 31.8048 11.9446 31.7622C11.8766 31.7279 11.8512 31.7296 11.7742 31.713L11.6958 31.698ZM11.7455 31.4884L11.942 31.5383C12.0613 31.5547 12.1276 31.4964 12.1512 31.3604C12.1724 31.2358 12.1449 31.1872 12.0378 31.1631L11.8272 31.1227L11.7455 31.4884Z" fill="white"/>
<path fill-rule="evenodd" clip-rule="evenodd" d="M13.5674 31.167L13.856 31.1986L13.7317 32.15C13.6713 32.4516 13.5476 32.5834 13.1957 32.5422C12.8376 32.4994 12.7525 32.3458 12.7741 32.0418L12.8994 31.0913L13.1902 31.1226L13.0654 32.0518C13.052 32.1527 13.0274 32.3023 13.2177 32.3205C13.3866 32.3326 13.4249 32.227 13.4441 32.0958" fill="white"/>
<path fill-rule="evenodd" clip-rule="evenodd" d="M14.1738 32.5942L14.2608 31.2339L14.815 31.2565C15.0771 31.2688 15.1456 31.4704 15.1375 31.6628C15.1298 31.7799 15.0911 31.9105 14.9829 31.9814C14.8942 32.0417 14.7801 32.056 14.6744 32.0511L14.4938 32.0417L14.4577 32.6118L14.1738 32.5942ZM14.5018 31.8342L14.6487 31.8419C14.768 31.846 14.847 31.8016 14.8573 31.6364C14.8633 31.478 14.7995 31.4509 14.645 31.4446L14.5287 31.4408L14.5018 31.8342Z" fill="white"/>
<path fill-rule="evenodd" clip-rule="evenodd" d="M53.274 19.8557L51.0706 23.6257C50.239 22.989 49.2236 22.5206 47.9279 22.5206C44.8617 22.5206 43.616 24.675 43.616 26.1927C43.616 27.3194 44.3986 28.9815 47.1268 28.9815C48.2722 28.9815 49.9 28.2306 50.3686 27.8888L48.1896 32.2626C47.1508 32.458 46.8095 32.5791 45.9303 32.6048C41.047 32.7421 39.0739 29.9142 39.0752 27.0248C39.0786 23.2048 42.6812 18.5593 48.6538 18.5593C49.0196 18.5593 49.4672 18.6787 49.85 18.8109L50.2369 18.3445" fill="white"/>
<path fill-rule="evenodd" clip-rule="evenodd" d="M62.3655 18.4626L62.9894 32.1645H58.346L58.3434 29.8147H55.177L54.1351 32.1645H49.0991L54.3641 22.3802L53.1769 22.373L55.4324 18.4626H62.3655ZM58.3132 22.6544L56.5231 26.6398H58.3673L58.3132 22.6544Z" fill="white"/>
<path fill-rule="evenodd" clip-rule="evenodd" d="M36.1439 18.4627C38.4434 18.4748 39.7428 19.6515 39.7428 21.351C39.7428 22.918 38.3724 24.3049 36.868 25.0221C38.4168 25.559 38.5508 26.8765 38.5508 27.8084C38.5508 30.0605 36.1539 32.1645 33.0381 32.1645H26.2427L28.8933 22.5166L27.8045 22.5106L30.0303 18.4627C30.0303 18.4627 34.274 18.4505 36.1439 18.4627V18.4627ZM33.8879 24.018C34.3636 24.018 35.2034 23.9045 35.4134 23.0367C35.6435 22.0946 34.8553 22.0693 34.4772 22.0693L33.1263 22.0638L32.6552 24.018H33.8879ZM31.9779 26.4393L31.3559 28.6912H32.9468C33.5725 28.6912 34.4254 28.3983 34.6344 27.6654C34.8408 26.9306 34.2446 26.4393 33.6211 26.4393H31.9779Z" fill="white"/>
<path fill-rule="evenodd" clip-rule="evenodd" d="M14.93 33.8482C12.5771 33.8482 10.1592 33.302 7.74446 32.2216L7.6852 32.1941L7.65686 32.1372C6.57322 29.9809 6 27.6226 6 25.3152C6 23.011 6.54971 20.7535 7.634 18.6002L7.66395 18.5429L7.72433 18.5144C9.95812 17.5169 12.361 17.0117 14.8688 17.0117C17.2047 17.0117 19.6996 17.5741 22.0824 18.6411L22.1434 18.6668L22.1717 18.7251C23.276 20.9211 23.8584 23.279 23.8584 25.5483C23.8584 27.8085 23.2992 30.0682 22.1935 32.2628L22.1645 32.3204L22.103 32.3471C19.9032 33.3287 17.4227 33.8482 14.93 33.8482M7.96795 31.9259C10.3136 32.9662 12.6534 33.4914 14.93 33.4914C17.344 33.4914 19.7446 32.994 21.8817 32.0511C22.9433 29.9244 23.4814 27.7357 23.4814 25.5483C23.4814 23.3518 22.9198 21.0673 21.8574 18.9358C19.5451 17.911 17.1301 17.3677 14.8688 17.3677C12.441 17.3677 10.1138 17.8531 7.94766 18.8108C6.90781 20.8979 6.37855 23.085 6.37855 25.3152C6.37855 27.5493 6.92842 29.8349 7.96795 31.9259Z" fill="white"/>
</svg>
