<svg width="24" height="24" viewBox="0 0 24 24" fill="none" xmlns="http://www.w3.org/2000/svg">
<g id="Notifications icon">
<g id="Group">
<g id="Layer_28">
<path id="Shape" fill-rule="evenodd" clip-rule="evenodd" d="M20.7414 16.8889H19.8223V10.0444C19.8223 5.72435 16.3202 2.22222 12.0001 2.22222C7.67996 2.22222 4.17783 5.72435 4.17783 10.0444V16.8889H3.30761C2.7676 16.8889 2.32983 17.3267 2.32983 17.8667C2.32983 18.4067 2.7676 18.8444 3.30761 18.8444H9.06672C9.06672 20.4645 10.38 21.7778 12.0001 21.7778C13.6201 21.7778 14.9334 20.4645 14.9334 18.8444H20.7414C21.2814 18.8444 21.7192 18.4067 21.7192 17.8667C21.7192 17.3267 21.2814 16.8889 20.7414 16.8889ZM12.0001 19.8222C11.46 19.8222 11.0223 19.3845 11.0223 18.8444H12.9778C12.9778 19.3845 12.5401 19.8222 12.0001 19.8222ZM6.13339 16.8889H13.9556H17.8667V10.0444C17.8667 6.80437 15.2401 4.17778 12.0001 4.17778C8.75999 4.17778 6.13339 6.80437 6.13339 10.0444V16.8889Z" fill="#4E40C4"/>
</g>
</g>
</g>
</svg>
