<svg width="20" height="20" viewBox="0 0 20 20" fill="none" xmlns="http://www.w3.org/2000/svg">
<path opacity="0.4" d="M14.3402 0H5.67024C2.28024 0 0.000244141 2.38 0.000244141 5.92V14.09C0.000244141 17.62 2.28024 20 5.67024 20H14.3402C17.7302 20 20.0002 17.62 20.0002 14.09V5.92C20.0002 2.38 17.7302 0 14.3402 0" fill="#130F26"/>
<path d="M8.81344 13.248C8.58944 13.248 8.36544 13.163 8.19444 12.992L5.82144 10.619C5.47944 10.277 5.47944 9.72296 5.82144 9.38196C6.16344 9.03996 6.71644 9.03896 7.05844 9.38096L8.81344 11.136L12.9414 7.00796C13.2834 6.66596 13.8364 6.66596 14.1784 7.00796C14.5204 7.34996 14.5204 7.90396 14.1784 8.24596L9.43244 12.992C9.26144 13.163 9.03744 13.248 8.81344 13.248" fill="#130F26"/>
</svg>
