<svg width="20" height="19" viewBox="0 0 20 19" fill="none" xmlns="http://www.w3.org/2000/svg">
<path opacity="0.9" d="M2.723 18.1665C2.71 18.1665 2.698 18.1665 2.684 18.1655C2.369 18.1495 2.06 18.0815 1.766 17.9625C0.319002 17.3745 -0.378998 15.7215 0.208002 14.2755L7.529 1.44951C7.781 0.993514 8.163 0.611514 8.629 0.353514C9.994 -0.402486 11.72 0.094514 12.475 1.45851L19.748 14.1865C19.91 14.5675 19.979 14.8775 19.996 15.1935C20.035 15.9495 19.777 16.6745 19.271 17.2355C18.765 17.7965 18.07 18.1275 17.315 18.1655L2.795 18.1665H2.723Z" fill="#F04438"/>
<path fill-rule="evenodd" clip-rule="evenodd" d="M9.12451 7.021C9.12451 6.539 9.51751 6.146 9.99951 6.146C10.4815 6.146 10.8745 6.539 10.8745 7.021V9.849C10.8745 10.332 10.4815 10.724 9.99951 10.724C9.51751 10.724 9.12451 10.332 9.12451 9.849V7.021ZM9.12451 13.2701C9.12451 12.7851 9.51751 12.3901 9.99951 12.3901C10.4815 12.3901 10.8745 12.7801 10.8745 13.2591C10.8745 13.7521 10.4815 14.1451 9.99951 14.1451C9.51751 14.1451 9.12451 13.7521 9.12451 13.2701Z" fill="#FCFCFD"/>
</svg>
