<svg width="79" height="79" viewBox="0 0 79 79" fill="none" xmlns="http://www.w3.org/2000/svg">
<path d="M39.5414 64.7043C53.4384 64.7043 64.7041 53.4386 64.7041 39.5416C64.7041 25.6446 53.4384 14.3789 39.5414 14.3789C25.6444 14.3789 14.3787 25.6446 14.3787 39.5416C14.3787 53.4386 25.6444 64.7043 39.5414 64.7043Z" fill="#F79009"/>
<path d="M39.5414 78.939C37.5643 78.939 35.9467 77.4652 35.9467 75.4881V75.2005C35.9467 73.2235 37.5643 71.6059 39.5414 71.6059C41.5185 71.6059 43.1361 73.2235 43.1361 75.2005C43.1361 77.1776 41.5185 78.939 39.5414 78.939ZM65.2073 68.802C64.2727 68.802 63.3741 68.4426 62.6551 67.7596L62.1878 67.2923C60.7859 65.8903 60.7859 63.6257 62.1878 62.2238C63.5897 60.8218 65.8544 60.8218 67.2563 62.2238L67.7236 62.6911C69.1255 64.093 69.1255 66.3576 67.7236 67.7596C67.0406 68.4426 66.142 68.802 65.2073 68.802ZM13.8754 68.802C12.9408 68.802 12.0422 68.4426 11.3232 67.7596C9.9213 66.3576 9.9213 64.093 11.3232 62.6911L11.7905 62.2238C13.1924 60.8218 15.4571 60.8218 16.859 62.2238C18.2609 63.6257 18.2609 65.8903 16.859 67.2923L16.3917 67.7596C15.7087 68.4426 14.7741 68.802 13.8754 68.802ZM75.4881 43.1361H75.2005C73.2235 43.1361 71.6059 41.5185 71.6059 39.5414C71.6059 37.5643 73.2235 35.9467 75.2005 35.9467C77.1776 35.9467 78.939 37.5643 78.939 39.5414C78.939 41.5185 77.4652 43.1361 75.4881 43.1361ZM3.88225 43.1361H3.59467C1.6176 43.1361 0 41.5185 0 39.5414C0 37.5643 1.6176 35.9467 3.59467 35.9467C5.57174 35.9467 7.33313 37.5643 7.33313 39.5414C7.33313 41.5185 5.85932 43.1361 3.88225 43.1361ZM64.74 17.9374C63.8054 17.9374 62.9068 17.5779 62.1878 16.895C60.7859 15.493 60.7859 13.2284 62.1878 11.8265L62.6551 11.3592C64.0571 9.95724 66.3217 9.95724 67.7236 11.3592C69.1255 12.7611 69.1255 15.0257 67.7236 16.4277L67.2563 16.895C66.5733 17.5779 65.6747 17.9374 64.74 17.9374ZM14.3427 17.9374C13.4081 17.9374 12.5095 17.5779 11.7905 16.895L11.3232 16.3917C9.9213 14.9898 9.9213 12.7251 11.3232 11.3232C12.7251 9.9213 14.9898 9.9213 16.3917 11.3232L16.859 11.7905C18.2609 13.1924 18.2609 15.4571 16.859 16.859C16.176 17.5779 15.2414 17.9374 14.3427 17.9374ZM39.5414 7.33313C37.5643 7.33313 35.9467 5.85932 35.9467 3.88225V3.59467C35.9467 1.6176 37.5643 0 39.5414 0C41.5185 0 43.1361 1.6176 43.1361 3.59467C43.1361 5.57174 41.5185 7.33313 39.5414 7.33313Z" fill="#FEC84B"/>
</svg>
