<svg width="18" height="20" viewBox="0 0 18 20" fill="none" xmlns="http://www.w3.org/2000/svg">
<path opacity="0.4" d="M16.6432 7.48826C16.6432 7.55626 16.1103 14.297 15.8059 17.1339C15.6152 18.8749 14.4929 19.9308 12.8094 19.9608C11.5159 19.9898 10.2497 19.9998 9.00382 19.9998C7.68115 19.9998 6.38766 19.9898 5.13209 19.9608C3.50501 19.9218 2.38171 18.8449 2.20082 17.1339C1.88766 14.287 1.36442 7.55626 1.3547 7.48826C1.34497 7.28327 1.41111 7.08828 1.54532 6.93028C1.67758 6.78429 1.8682 6.69629 2.06855 6.69629H15.9391C16.1385 6.69629 16.3194 6.78429 16.4623 6.93028C16.5956 7.08828 16.6627 7.28327 16.6432 7.48826" fill="#130F26"/>
<path d="M18 3.97686C18 3.56588 17.6761 3.24389 17.2871 3.24389H14.3714C13.7781 3.24389 13.2627 2.8219 13.1304 2.22692L12.967 1.49795C12.7385 0.616978 11.9498 0 11.0647 0H6.93624C6.0415 0 5.26054 0.616978 5.02323 1.54595L4.87054 2.22792C4.7373 2.8219 4.22185 3.24389 3.62957 3.24389H0.713853C0.32386 3.24389 0 3.56588 0 3.97686V4.35685C0 4.75783 0.32386 5.08982 0.713853 5.08982H17.2871C17.6761 5.08982 18 4.75783 18 4.35685V3.97686Z" fill="#130F26"/>
</svg>
