<svg width="18" height="20" viewBox="0 0 18 20" fill="none" xmlns="http://www.w3.org/2000/svg">
<path d="M17.4573 9.18664C17.342 9.31081 17.1861 9.3805 17.0235 9.3805C16.8609 9.3805 16.705 9.31081 16.5897 9.18664L15.8881 8.47997V18.4333C15.8881 18.6101 15.8233 18.7797 15.7079 18.9047C15.5925 19.0297 15.4359 19.1 15.2727 19.1H11.1866V11.54C11.1866 11.2304 11.1302 10.9238 11.0206 10.6378C10.9111 10.3519 10.7505 10.0922 10.5481 9.87355C10.3458 9.65494 10.1056 9.48173 9.84131 9.36386C9.57704 9.24598 9.29391 9.18576 9.00812 9.18664C8.43198 9.18664 7.87945 9.43458 7.47206 9.87591C7.06468 10.3172 6.83581 10.9158 6.83581 11.54V19.1H2.74966C2.58644 19.1 2.42992 19.0297 2.31451 18.9047C2.19911 18.7797 2.13427 18.6101 2.13427 18.4333V8.50664L1.42658 9.21997C1.31309 9.33508 1.16358 9.39939 1.00812 9.39997C0.923737 9.39968 0.840315 9.38059 0.763034 9.34389C0.685752 9.30719 0.616264 9.25366 0.558886 9.18664C0.448263 9.05738 0.389396 8.88591 0.395162 8.70976C0.400929 8.5336 0.470858 8.36709 0.589655 8.24664L7.01427 1.7533C7.55716 1.20741 8.27049 0.904053 9.01119 0.904053C9.7519 0.904053 10.4652 1.20741 11.0081 1.7533L17.4266 8.23997C17.4863 8.29972 17.5345 8.37169 17.5684 8.45174C17.6024 8.53179 17.6213 8.61833 17.6242 8.70636C17.627 8.79438 17.6137 8.88214 17.5851 8.96458C17.5565 9.04702 17.5131 9.12249 17.4573 9.18664Z" fill="black"/>
<path d="M17.4573 9.18664C17.342 9.31081 17.1861 9.3805 17.0235 9.3805C16.8609 9.3805 16.705 9.31081 16.5897 9.18664L15.8881 8.47997V18.4333C15.8881 18.6101 15.8233 18.7797 15.7079 18.9047C15.5925 19.0297 15.4359 19.1 15.2727 19.1H11.1866V11.54C11.1866 11.2304 11.1302 10.9238 11.0206 10.6378C10.9111 10.3519 10.7505 10.0922 10.5481 9.87355C10.3458 9.65494 10.1056 9.48173 9.84131 9.36386C9.57704 9.24598 9.29391 9.18576 9.00812 9.18664C8.43198 9.18664 7.87945 9.43458 7.47206 9.87591C7.06468 10.3172 6.83581 10.9158 6.83581 11.54V19.1H2.74966C2.58644 19.1 2.42992 19.0297 2.31451 18.9047C2.19911 18.7797 2.13427 18.6101 2.13427 18.4333V8.50664L1.42658 9.21997C1.31309 9.33508 1.16358 9.39939 1.00812 9.39997C0.923737 9.39968 0.840315 9.38059 0.763034 9.34389C0.685752 9.30719 0.616264 9.25366 0.558886 9.18664C0.448263 9.05738 0.389396 8.88591 0.395162 8.70976C0.400929 8.5336 0.470858 8.36709 0.589655 8.24664L7.01427 1.7533C7.55716 1.20741 8.27049 0.904053 9.01119 0.904053C9.7519 0.904053 10.4652 1.20741 11.0081 1.7533L17.4266 8.23997C17.4863 8.29972 17.5345 8.37169 17.5684 8.45174C17.6024 8.53179 17.6213 8.61833 17.6242 8.70636C17.627 8.79438 17.6137 8.88214 17.5851 8.96458C17.5565 9.04702 17.5131 9.12249 17.4573 9.18664Z" fill="url(#paint0_linear_1887_55177)"/>
<defs>
<linearGradient id="paint0_linear_1887_55177" x1="1.15999" y1="8.01183" x2="15.8417" y2="16.3082" gradientUnits="userSpaceOnUse">
<stop stop-color="#5D5FEF"/>
<stop offset="0.962489" stop-color="#9747FF"/>
</linearGradient>
</defs>
</svg>
