<svg width="14" height="14" viewBox="0 0 14 14" fill="none" xmlns="http://www.w3.org/2000/svg">
<path d="M13.9607 4.11369C13.9271 3.36829 13.8067 2.85829 13.6358 2.41273C13.4566 1.95316 13.2185 1.56085 12.8293 1.17414C12.44 0.78743 12.0507 0.543635 11.5914 0.367094C11.1461 0.193355 10.6364 0.0756605 9.89148 0.0420336C9.14373 0.00840672 8.90568 0 7.0069 0C5.10532 0 4.86727 0.00840672 4.12232 0.0420336C3.37737 0.0756605 2.86767 0.196157 2.42238 0.367094C1.96029 0.546437 1.56821 0.784628 1.18174 1.17414C0.795258 1.56365 0.551609 1.95316 0.375174 2.41273C0.20434 2.85829 0.0839159 3.36829 0.0503092 4.11369C0.0167025 4.86189 0.00830078 5.10008 0.00830078 7C0.00830078 8.90272 0.0167025 9.14091 0.0503092 9.88631C0.0839159 10.6317 0.20434 11.1417 0.375174 11.5873C0.55441 12.0468 0.792458 12.4392 1.18174 12.8259C1.56821 13.2154 1.96029 13.4564 2.41958 13.6329C2.86487 13.8066 3.37457 13.9243 4.11952 13.958C4.86727 13.9916 5.10532 14 7.0041 14C8.90568 14 9.14373 13.9916 9.88868 13.958C10.6336 13.9243 11.1433 13.8038 11.5886 13.6329C12.0479 13.4536 12.44 13.2154 12.8265 12.8259C13.2129 12.4363 13.4566 12.0468 13.633 11.5873C13.8067 11.1417 13.9243 10.6317 13.9579 9.88631C13.9915 9.13811 13.9999 8.89992 13.9999 7C13.9999 5.10008 13.9943 4.85909 13.9607 4.11369ZM12.7032 9.83026C12.6724 10.514 12.5576 10.8867 12.4624 11.1305C12.3364 11.4556 12.1823 11.691 11.9359 11.9376C11.6894 12.1841 11.457 12.3327 11.1293 12.4644C10.8829 12.5596 10.5104 12.6745 9.82987 12.7054C9.09332 12.739 8.87207 12.7474 7.0013 12.7474C5.13053 12.7474 4.90928 12.739 4.17273 12.7054C3.4894 12.6745 3.11692 12.5596 2.87327 12.4644C2.54841 12.3383 2.31316 12.1841 2.06671 11.9376C1.82026 11.691 1.67183 11.4584 1.54021 11.1305C1.44499 10.8839 1.33017 10.5112 1.29936 9.83026C1.26575 9.09327 1.25735 8.8719 1.25735 7C1.25735 5.1281 1.26575 4.90673 1.29936 4.16974C1.33017 3.48599 1.44499 3.11329 1.54021 2.8695C1.66623 2.54444 1.82026 2.30905 2.06671 2.06245C2.31316 1.81585 2.54561 1.66733 2.87327 1.53563C3.11972 1.44035 3.4922 1.32546 4.17273 1.29464C4.90928 1.26101 5.13053 1.2526 7.0013 1.2526C8.87207 1.2526 9.09332 1.26101 9.82987 1.29464C10.5132 1.32546 10.8857 1.44035 11.1293 1.53563C11.4542 1.66173 11.6894 1.81585 11.9359 2.06245C12.1823 2.30905 12.3308 2.54163 12.4624 2.8695C12.5576 3.11609 12.6724 3.48879 12.7032 4.16974C12.7368 4.90673 12.7452 5.1281 12.7452 7C12.7452 8.8719 12.734 9.09327 12.7032 9.83026Z" fill="url(#paint0_linear_2091_2156)"/>
<path d="M7.00119 3.40186C5.01279 3.40186 3.40527 5.01314 3.40527 6.99993C3.40527 8.98953 5.0156 10.598 7.00119 10.598C8.98679 10.598 10.5971 8.98392 10.5971 6.99993C10.5971 5.01034 8.98959 3.40186 7.00119 3.40186ZM7.00119 9.3342C5.71293 9.3342 4.66833 8.28897 4.66833 6.99993C4.66833 5.7109 5.71293 4.66567 7.00119 4.66567C8.28945 4.66567 9.33406 5.7109 9.33406 6.99993C9.33406 8.28897 8.28945 9.3342 7.00119 9.3342Z" fill="url(#paint1_linear_2091_2156)"/>
<path d="M10.7371 4.10249C11.2012 4.10249 11.5773 3.72611 11.5773 3.26182C11.5773 2.79752 11.2012 2.42114 10.7371 2.42114C10.2731 2.42114 9.89697 2.79752 9.89697 3.26182C9.89697 3.72611 10.2731 4.10249 10.7371 4.10249Z" fill="#BC30A0"/>
<defs>
<linearGradient id="paint0_linear_2091_2156" x1="11.8389" y1="1.07053" x2="1.71084" y2="13.4794" gradientUnits="userSpaceOnUse">
<stop stop-color="#AE3DAE"/>
<stop offset="0.0468721" stop-color="#B23BA6"/>
<stop offset="0.1216" stop-color="#BD368E"/>
<stop offset="0.2148" stop-color="#CE2E69"/>
<stop offset="0.3216" stop-color="#E62335"/>
<stop offset="0.418" stop-color="#FF1800"/>
</linearGradient>
<linearGradient id="paint1_linear_2091_2156" x1="8.7161" y1="4.1141" x2="5.03681" y2="10.2966" gradientUnits="userSpaceOnUse">
<stop stop-color="#E12F6A"/>
<stop offset="0.1705" stop-color="#EA3751"/>
<stop offset="0.3563" stop-color="#F13D3E"/>
<stop offset="0.5467" stop-color="#F64133"/>
<stop offset="0.7469" stop-color="#F7422F"/>
<stop offset="0.7946" stop-color="#F74C2F"/>
<stop offset="0.8743" stop-color="#F7652F"/>
<stop offset="0.9757" stop-color="#F78F2E"/>
<stop offset="1" stop-color="#F79A2E"/>
</linearGradient>
</defs>
</svg>
