<svg width="24" height="24" viewBox="0 0 24 24" fill="none" xmlns="http://www.w3.org/2000/svg">
<path opacity="0.4" d="M12 22C6.485 22 2 17.514 2 12C2 6.486 6.485 2 12 2C17.514 2 22 6.486 22 12C22 17.514 17.514 22 12 22Z" fill="#130F26"/>
<path d="M13.4425 16.2211C13.2515 16.2211 13.0595 16.1481 12.9135 16.0021L9.42652 12.5321C9.28552 12.3911 9.20652 12.2001 9.20652 12.0001C9.20652 11.8011 9.28552 11.6101 9.42652 11.4691L12.9135 7.99707C13.2065 7.70507 13.6805 7.70507 13.9735 7.99907C14.2655 8.29307 14.2645 8.76807 13.9715 9.06007L11.0185 12.0001L13.9715 14.9401C14.2645 15.2321 14.2655 15.7061 13.9735 16.0001C13.8275 16.1481 13.6345 16.2211 13.4425 16.2211Z" fill="#130F26"/>
</svg>
