<svg width="20" height="22" viewBox="0 0 20 22" fill="none" xmlns="http://www.w3.org/2000/svg">
<path d="M14.6001 0.606689H5.40008C4.14588 0.606688 2.94294 1.10446 2.05546 1.99069C1.16798 2.87692 0.668515 4.07915 0.666748 5.33336V16.6667C0.668515 17.9209 1.16798 19.1231 2.05546 20.0094C2.94294 20.8956 4.14588 21.3934 5.40008 21.3934H14.6001C15.8543 21.3934 17.0572 20.8956 17.9447 20.0094C18.8322 19.1231 19.3316 17.9209 19.3334 16.6667V5.33336C19.3316 4.07915 18.8322 2.87692 17.9447 1.99069C17.0572 1.10446 15.8543 0.606688 14.6001 0.606689ZM18.0001 16.6667C17.9983 17.5673 17.6393 18.4304 17.0019 19.0665C16.3645 19.7027 15.5007 20.06 14.6001 20.06H5.40008C4.4995 20.06 3.6357 19.7027 2.99827 19.0665C2.36084 18.4304 2.00185 17.5673 2.00008 16.6667V5.33336C2.00185 4.43278 2.36084 3.56968 2.99827 2.9335C3.6357 2.29732 4.4995 1.94002 5.40008 1.94002H14.6001C15.5007 1.94002 16.3645 2.29732 17.0019 2.9335C17.6393 3.56968 17.9983 4.43278 18.0001 5.33336V16.6667ZM8.13341 6.52669C8.13474 6.75244 8.069 6.9735 7.94454 7.16185C7.82008 7.35019 7.6425 7.49735 7.43431 7.58465C7.22613 7.67196 6.9967 7.69549 6.77513 7.65226C6.55355 7.60903 6.3498 7.50098 6.1897 7.34182C6.0296 7.18266 5.92036 6.97954 5.87583 6.75822C5.8313 6.5369 5.85348 6.30735 5.93957 6.09865C6.02565 5.88995 6.17176 5.71152 6.35938 5.58595C6.54699 5.46039 6.76766 5.39336 6.99341 5.39336C7.14281 5.39248 7.2909 5.42114 7.42917 5.47771C7.56744 5.53427 7.69317 5.61761 7.79912 5.72294C7.90506 5.82826 7.98914 5.9535 8.04651 6.09144C8.10388 6.22937 8.13342 6.3773 8.13341 6.52669ZM9.24675 5.86002H14.1401V7.19336H9.24675V5.86002ZM8.13341 11C8.13341 11.2255 8.06656 11.4459 7.94129 11.6334C7.81603 11.8208 7.63798 11.967 7.42967 12.0532C7.22137 12.1395 6.99215 12.1621 6.77101 12.1181C6.54987 12.0741 6.34674 11.9656 6.18731 11.8061C6.02788 11.6467 5.91931 11.4436 5.87532 11.2224C5.83133 11.0013 5.85391 10.7721 5.94019 10.5638C6.02648 10.3555 6.17259 10.1774 6.36006 10.0521C6.54754 9.92688 6.76794 9.86002 6.99341 9.86002C7.29576 9.86002 7.58572 9.98013 7.79952 10.1939C8.01331 10.4077 8.13341 10.6977 8.13341 11ZM9.24675 10.3334H14.1401V11.6667H9.24675V10.3334ZM8.13341 15.4734C8.13341 15.6988 8.06656 15.9192 7.94129 16.1067C7.81603 16.2942 7.63798 16.4403 7.42967 16.5266C7.22137 16.6129 6.99215 16.6354 6.77101 16.5915C6.54987 16.5475 6.34674 16.4389 6.18731 16.2795C6.02788 16.12 5.91931 15.9169 5.87532 15.6958C5.83133 15.4746 5.85391 15.2454 5.94019 15.0371C6.02648 14.8288 6.17259 14.6507 6.36006 14.5255C6.54754 14.4002 6.76794 14.3334 6.99341 14.3334C7.14337 14.3325 7.29201 14.3614 7.43072 14.4183C7.56943 14.4753 7.69545 14.5592 7.80149 14.6653C7.90752 14.7713 7.99146 14.8973 8.04844 15.0361C8.10542 15.1748 8.1343 15.3234 8.13341 15.4734ZM9.24675 14.8067H14.1401V16.14H9.24675V14.8067Z" fill="#28587A"/>
</svg>
