<svg width="79" height="82" viewBox="0 0 79 82" fill="none" xmlns="http://www.w3.org/2000/svg">
<path d="M27.2654 69.2399C27.2654 72.6613 27.7949 76.0013 28.7725 79.0968C13.1318 73.6796 1.31986 59.3016 0.097934 42.4797C-1.12399 24.599 9.18092 7.89929 25.8399 0.893571C30.1573 -0.898588 32.3569 0.404801 33.2937 1.34161C34.1898 2.23769 35.4524 4.39643 33.6603 8.51025C31.8274 12.7463 30.9312 17.2267 30.9312 21.87C30.9719 30.1791 34.2305 37.8771 39.5255 43.7831C32.0718 49.7298 27.2654 58.935 27.2654 69.2399Z" fill="#344054"/>
<path opacity="0.4" d="M76.9951 64.025C68.9304 74.9816 56.1409 81.4171 42.496 81.4171C41.8444 81.4171 41.1927 81.3764 40.541 81.3356C36.4679 81.1727 32.517 80.3988 28.7697 79.0954C27.7922 75.9999 27.2627 72.6599 27.2627 69.2385C27.2627 58.9336 32.0689 49.7284 39.5227 43.7817C45.5101 50.5023 54.1044 54.8605 63.5947 55.2678C66.1607 55.39 68.7267 55.1864 71.2521 54.7383C75.8139 53.9237 77.6468 55.6344 78.2985 56.7342C78.9909 57.8339 79.7241 60.237 76.9951 64.025Z" fill="#292D32"/>
</svg>
