<svg width="18" height="20" viewBox="0 0 18 20" fill="none" xmlns="http://www.w3.org/2000/svg">
<path opacity="0.4" d="M15.8088 7.021C15.3573 7.021 14.7592 7.011 14.0146 7.011C12.1987 7.011 10.7055 5.508 10.7055 3.675V0.459C10.7055 0.206 10.5026 0 10.253 0H4.96363C2.49517 0 0.5 2.026 0.5 4.509V15.284C0.5 17.889 2.59022 20 5.16958 20H13.0453C15.5058 20 17.5 17.987 17.5 15.502V7.471C17.5 7.217 17.298 7.012 17.0465 7.013C16.6247 7.016 16.1168 7.021 15.8088 7.021" fill="#130F26"/>
<path opacity="0.4" d="M13.0841 0.567309C12.7851 0.256309 12.2631 0.470309 12.2631 0.901309V3.53831C12.2631 4.64431 13.1741 5.55431 14.2791 5.55431C14.9771 5.56231 15.9451 5.56431 16.7671 5.56231C17.1881 5.56131 17.4021 5.05831 17.1101 4.75431C16.0551 3.65731 14.1661 1.69131 13.0841 0.567309" fill="#130F26"/>
<path d="M11.3673 10.2363H9.63932V8.50931C9.63932 8.09831 9.30632 7.76431 8.89532 7.76431C8.48432 7.76431 8.15032 8.09831 8.15032 8.50931V10.2363H6.42332C6.01232 10.2363 5.67932 10.5703 5.67932 10.9813C5.67932 11.3923 6.01232 11.7263 6.42332 11.7263H8.15032V13.4523C8.15032 13.8633 8.48432 14.1973 8.89532 14.1973C9.30632 14.1973 9.63932 13.8633 9.63932 13.4523V11.7263H11.3673C11.7783 11.7263 12.1123 11.3923 12.1123 10.9813C12.1123 10.5703 11.7783 10.2363 11.3673 10.2363" fill="#130F26"/>
</svg>
