<svg width="18" height="20" viewBox="0 0 18 20" fill="none" xmlns="http://www.w3.org/2000/svg">
<path opacity="0.4" d="M15.8089 7.021C15.3574 7.021 14.7594 7.011 14.0149 7.011C12.199 7.011 10.7059 5.508 10.7059 3.675V0.459C10.7059 0.206 10.503 0 10.2525 0H4.96337C2.49604 0 0.5 2.026 0.5 4.509V15.284C0.5 17.889 2.59109 20 5.1703 20H13.0455C15.5059 20 17.5 17.987 17.5 15.502V7.471C17.5 7.217 17.298 7.012 17.0465 7.013C16.6238 7.016 16.1168 7.021 15.8089 7.021" fill="#130F26"/>
<path opacity="0.4" d="M13.0839 0.56737C12.7859 0.25637 12.2629 0.47037 12.2629 0.90137V3.53837C12.2629 4.64437 13.1739 5.55437 14.2799 5.55437C14.9769 5.56237 15.9449 5.56437 16.7669 5.56237C17.1879 5.56137 17.4019 5.05837 17.1099 4.75437C16.0549 3.65737 14.1659 1.69137 13.0839 0.56737" fill="#130F26"/>
<path d="M9.93492 10.9854L11.1559 9.76341C11.4469 9.47341 11.4469 9.00241 11.1559 8.71141C10.8649 8.42041 10.3939 8.42041 10.1029 8.71141L8.88192 9.93141L7.66092 8.71141C7.36992 8.42041 6.89792 8.42041 6.60692 8.71141C6.31592 9.00241 6.31592 9.47341 6.60692 9.76341L7.82892 10.9854L6.60692 12.2064C6.31592 12.4974 6.31592 12.9684 6.60692 13.2584C6.75292 13.4044 6.94292 13.4774 7.13392 13.4774C7.32492 13.4774 7.51492 13.4044 7.66092 13.2584L8.88192 12.0384L10.1029 13.2584C10.2479 13.4044 10.4389 13.4774 10.6299 13.4774C10.8199 13.4774 11.0109 13.4044 11.1559 13.2584C11.4469 12.9684 11.4469 12.4974 11.1559 12.2064L9.93492 10.9854Z" fill="#130F26"/>
</svg>
