<svg width="20" height="20" viewBox="0 0 20 20" fill="none" xmlns="http://www.w3.org/2000/svg">
<path d="M14.3939 2.00002C15.3906 2.00178 16.3459 2.39849 17.0507 3.10325C17.7554 3.808 18.1521 4.76335 18.1539 5.76002V14.24C18.1521 15.2367 17.7554 16.192 17.0507 16.8968C16.3459 17.6015 15.3906 17.9983 14.3939 18H5.91389C4.91722 17.9983 3.96187 17.6015 3.25711 16.8968C2.55236 16.192 2.15565 15.2367 2.15389 14.24V5.76002C2.15565 4.76335 2.55236 3.808 3.25711 3.10325C3.96187 2.39849 4.91722 2.00178 5.91389 2.00002H14.3939ZM14.3939 0.666687H5.91389C4.56305 0.666687 3.26754 1.2033 2.31236 2.15849C1.35717 3.11367 0.820557 4.40918 0.820557 5.76002V14.24C0.820557 15.5909 1.35717 16.8864 2.31236 17.8415C3.26754 18.7967 4.56305 19.3334 5.91389 19.3334H14.3939C15.7447 19.3334 17.0402 18.7967 17.9954 17.8415C18.9506 16.8864 19.4872 15.5909 19.4872 14.24V5.76002C19.4872 4.40918 18.9506 3.11367 17.9954 2.15849C17.0402 1.2033 15.7447 0.666687 14.3939 0.666687ZM14.4739 16H5.80722C5.63041 16 5.46084 15.9298 5.33582 15.8048C5.21079 15.6797 5.14056 15.5102 5.14056 15.3334V14.48C5.14232 13.5565 5.51045 12.6713 6.16413 12.0189C6.81782 11.3664 7.70365 11 8.62722 11H11.6272C12.5508 11 13.4366 11.3664 14.0903 12.0189C14.744 12.6713 15.1121 13.5565 15.1139 14.48V15.3334C15.114 15.5056 15.0475 15.6713 14.9281 15.7956C14.8088 15.9199 14.646 15.9931 14.4739 16ZM6.47389 14.6667H13.8072V14.4734C13.8055 13.9034 13.5778 13.3574 13.1742 12.955C12.7705 12.5526 12.2238 12.3267 11.6539 12.3267H8.65389C8.08394 12.3267 7.53724 12.5526 7.13361 12.955C6.72997 13.3574 6.50232 13.9034 6.50056 14.4734L6.47389 14.6667ZM10.1539 10C9.56318 10 8.98574 9.82485 8.49459 9.49668C8.00343 9.1685 7.62062 8.70204 7.39457 8.1563C7.16852 7.61056 7.10937 7.01004 7.22461 6.43068C7.33985 5.85133 7.6243 5.31915 8.042 4.90146C8.45969 4.48377 8.99186 4.19932 9.57122 4.08407C10.1506 3.96883 10.7511 4.02798 11.2968 4.25403C11.8426 4.48009 12.309 4.8629 12.6372 5.35405C12.9654 5.84521 13.1406 6.42265 13.1406 7.01335C13.1388 7.80493 12.8236 8.56357 12.2638 9.1233C11.7041 9.68303 10.9455 9.99826 10.1539 10ZM10.1539 5.33335C9.82689 5.33335 9.50724 5.43032 9.23535 5.61199C8.96346 5.79366 8.75155 6.05188 8.62641 6.35398C8.50127 6.65609 8.46853 6.98852 8.53232 7.30924C8.59612 7.62995 8.75358 7.92455 8.98481 8.15577C9.21603 8.38699 9.51062 8.54446 9.83134 8.60825C10.1521 8.67205 10.4845 8.6393 10.7866 8.51417C11.0887 8.38903 11.3469 8.17712 11.5286 7.90523C11.7103 7.63334 11.8072 7.31368 11.8072 6.98669C11.8072 6.54819 11.633 6.12766 11.323 5.8176C11.0129 5.50754 10.5924 5.33335 10.1539 5.33335Z" fill="#28587A"/>
</svg>
