<svg width="24" height="24" viewBox="0 0 24 24" fill="none" xmlns="http://www.w3.org/2000/svg">
<path opacity="0.4" d="M12 2C17.515 2 22 6.486 22 12C22 17.514 17.515 22 12 22C6.486 22 2 17.514 2 12C2 6.486 6.486 2 12 2Z" fill="#130F26"/>
<path d="M10.5575 7.77893C10.7485 7.77893 10.9405 7.85193 11.0865 7.99793L14.5735 11.4679C14.7145 11.6089 14.7935 11.7999 14.7935 11.9999C14.7935 12.1989 14.7145 12.3899 14.5735 12.5309L11.0865 16.0029C10.7935 16.2949 10.3195 16.2949 10.0265 16.0009C9.73448 15.7069 9.73548 15.2319 10.0285 14.9399L12.9815 11.9999L10.0285 9.05993C9.73548 8.76793 9.73448 8.29393 10.0265 7.99993C10.1725 7.85193 10.3655 7.77893 10.5575 7.77893Z" fill="#130F26"/>
</svg>
