<svg width="25" height="24" viewBox="0 0 25 24" fill="none" xmlns="http://www.w3.org/2000/svg">
<path fill-rule="evenodd" clip-rule="evenodd" d="M8.89349 8.09274C8.89349 8.47701 8.58331 8.78889 8.20113 8.78889C7.81895 8.78889 7.50877 8.47701 7.50877 8.09274C7.50877 5.55968 9.55815 3.5 12.0774 3.5C14.5957 3.5 16.6451 5.55968 16.6451 8.09274C16.6451 10.6258 14.5957 12.6855 12.0774 12.6855C11.0463 12.6855 10.0742 12.3523 9.26736 11.7211C8.96549 11.4853 8.91103 11.0481 9.14551 10.7446C9.37906 10.4402 9.81571 10.3863 10.1176 10.623C10.6788 11.0611 11.3564 11.2932 12.0774 11.2932C13.8332 11.2932 15.2604 9.85725 15.2604 8.09274C15.2604 6.32823 13.8332 4.8923 12.0774 4.8923C10.3216 4.8923 8.89349 6.32823 8.89349 8.09274ZM7.0976 10.9852C7.0976 11.3695 6.78743 11.6813 6.40525 11.6813C4.41218 11.6813 2.79021 10.0514 2.79021 8.04744C2.79021 6.04346 4.41218 4.41261 6.40525 4.41261C6.78743 4.41261 7.0976 4.72448 7.0976 5.10876C7.0976 5.49303 6.78743 5.80491 6.40525 5.80491C5.17562 5.80491 4.17493 6.81108 4.17493 8.04744C4.17493 9.28381 5.17562 10.289 6.40525 10.289C6.78743 10.289 7.0976 10.6009 7.0976 10.9852ZM5.10804 14.872C4.66309 14.9017 4.21629 14.9676 3.77964 15.066C3.10944 15.1988 2.64879 15.4252 2.5297 15.6759C2.44016 15.8661 2.44016 16.0861 2.5297 16.2764C2.58694 16.3961 2.81957 16.6941 3.76764 16.8899C4.14243 16.967 4.38338 17.3346 4.30675 17.7114C4.24029 18.0409 3.95134 18.2674 3.62917 18.2674C3.58301 18.2674 3.53685 18.2628 3.48977 18.2535C2.34415 18.0177 1.60102 17.5536 1.27977 16.8742C1.00928 16.3033 1.00928 15.6489 1.27977 15.0781C1.60471 14.3922 2.34969 13.929 3.49439 13.7025C3.98273 13.593 4.50061 13.5178 5.01481 13.4835C5.38406 13.4547 5.72655 13.7471 5.7524 14.1304C5.77825 14.5147 5.49023 14.847 5.10804 14.872ZM17.7602 10.3117C17.378 10.3117 17.0678 10.6236 17.0678 11.0078C17.0678 11.3921 17.378 11.704 17.7602 11.704C19.7486 11.704 21.3669 10.0769 21.3669 8.07752C21.3669 6.07724 19.7486 4.45103 17.7602 4.45103C17.378 4.45103 17.0678 4.76198 17.0678 5.14719C17.0678 5.53146 17.378 5.84334 17.7602 5.84334C18.9852 5.84334 19.9822 6.84579 19.9822 8.07752C19.9822 9.30924 18.9852 10.3117 17.7602 10.3117ZM20.6797 13.7196C21.8069 13.9442 22.55 14.4055 22.874 15.0878C23.1445 15.6586 23.1445 16.312 22.874 16.8829C22.5537 17.5596 21.8124 18.0227 20.6687 18.2594C20.6225 18.2696 20.5754 18.2743 20.5283 18.2743C20.2071 18.2743 19.9191 18.0469 19.8517 17.7183C19.775 17.3414 20.016 16.9729 20.3908 16.8959C21.3352 16.7 21.5678 16.403 21.6241 16.2842C21.7136 16.0949 21.7136 15.8767 21.6241 15.6874C21.5059 15.4377 21.0471 15.2121 20.3954 15.0822C19.9421 14.9819 19.4953 14.916 19.0541 14.8863C18.6719 14.8613 18.3839 14.528 18.4097 14.1447C18.4346 13.7614 18.7679 13.4773 19.1464 13.4977C19.6587 13.5321 20.1738 13.6073 20.6797 13.7196ZM12.0771 14.126C10.4099 14.126 5.33726 14.126 5.33726 17.3218C5.33726 18.0431 5.61974 19.0418 6.96569 19.7055C7.37925 19.9078 7.8796 20.073 8.45379 20.1965C8.82582 20.28 9.19508 20.0368 9.27447 19.6609C9.35478 19.285 9.11569 18.9146 8.74182 18.8348C8.2784 18.7355 7.88514 18.6074 7.57496 18.4542C6.81891 18.082 6.72198 17.6541 6.72198 17.3218C6.72198 15.8311 9.6345 15.5183 12.0771 15.5183C15.6312 15.5183 17.4323 16.1189 17.4323 17.3051C17.4323 18.7949 14.5198 19.1077 12.0771 19.1077C11.695 19.1077 11.3848 19.4196 11.3848 19.8038C11.3848 20.1881 11.695 20.5 12.0771 20.5C13.7443 20.5 18.817 20.5 18.817 17.3051C18.817 14.126 13.9207 14.126 12.0771 14.126Z" fill="#28587A"/>
</svg>
