<svg width="14" height="14" viewBox="0 0 14 14" fill="none" xmlns="http://www.w3.org/2000/svg">
<path d="M0 14L0.989493 10.4068C0.377746 9.35219 0.056829 8.1578 0.0601719 6.93679C0.0601719 3.11074 3.18911 0 7.03008 0C8.89541 0 10.6471 0.721958 11.9608 2.03279C13.2779 3.34363 14.0033 5.08698 14 6.94012C14 10.7662 10.8711 13.8769 7.02674 13.8769H7.02339C5.85673 13.8769 4.71012 13.5841 3.69054 13.0318L0 14ZM3.86771 11.7776L4.07832 11.904C4.96752 12.4297 5.9871 12.7058 7.02674 12.7091H7.03008C10.2225 12.7091 12.8233 10.1241 12.8233 6.94344C12.8233 5.40304 12.2216 3.9558 11.1285 2.86454C10.0353 1.77329 8.57783 1.17443 7.03008 1.17443C3.83763 1.1711 1.23687 3.75618 1.23687 6.93679C1.23687 8.02472 1.54107 9.08603 2.12273 10.0043L2.25979 10.2239L1.67478 12.3498L3.86771 11.7776Z" fill="white"/>
<path d="M0.244141 13.7572L1.2002 10.2871C0.608515 9.27239 0.297627 8.11792 0.297627 6.94017C0.30097 3.2472 3.31959 0.24292 7.03019 0.24292C8.832 0.24292 10.5202 0.941589 11.7905 2.20585C13.0608 3.47011 13.7594 5.15357 13.7594 6.94349C13.7594 10.6365 10.7374 13.6407 7.03019 13.6407H7.02685C5.9003 13.6407 4.7938 13.3579 3.811 12.8256L0.244141 13.7572Z" fill="url(#paint0_linear_2091_2775)"/>
<path d="M0 14L0.989493 10.4068C0.377746 9.35219 0.056829 8.1578 0.0601719 6.93679C0.0601719 3.11074 3.18911 0 7.03008 0C8.89541 0 10.6471 0.721958 11.9608 2.03279C13.2779 3.34363 14.0033 5.08698 14 6.94012C14 10.7662 10.8711 13.8769 7.02674 13.8769H7.02339C5.85673 13.8769 4.71012 13.5841 3.69054 13.0318L0 14ZM3.86771 11.7776L4.07832 11.904C4.96752 12.4297 5.9871 12.7058 7.02674 12.7091H7.03008C10.2225 12.7091 12.8233 10.1241 12.8233 6.94344C12.8233 5.40304 12.2216 3.9558 11.1285 2.86454C10.0353 1.77329 8.57783 1.17443 7.03008 1.17443C3.83763 1.1711 1.23687 3.75618 1.23687 6.93679C1.23687 8.02472 1.54107 9.08603 2.12273 10.0043L2.25979 10.2239L1.67478 12.3498L3.86771 11.7776Z" fill="url(#paint1_linear_2091_2775)"/>
<path fill-rule="evenodd" clip-rule="evenodd" d="M5.28822 4.03567C5.15784 3.74622 5.02079 3.73956 4.8971 3.73624C4.79681 3.73291 4.67981 3.73291 4.56281 3.73291C4.44581 3.73291 4.25861 3.77616 4.09815 3.94916C3.93769 4.12217 3.48975 4.54137 3.48975 5.39641C3.48975 6.24812 4.11486 7.07321 4.20178 7.18966C4.28869 7.3061 5.40856 9.11266 7.17694 9.80801C8.64781 10.3869 8.94867 10.2705 9.26625 10.2405C9.58382 10.2106 10.2959 9.82131 10.4429 9.41542C10.5867 9.00953 10.5867 8.66352 10.5432 8.59033C10.4998 8.51713 10.3828 8.47388 10.2089 8.38738C10.0351 8.30088 9.17933 7.88167 9.01887 7.82179C8.85841 7.76523 8.74141 7.73529 8.62776 7.90829C8.51076 8.08129 8.17647 8.47055 8.07618 8.587C7.97589 8.70344 7.87226 8.71675 7.69843 8.63025C7.5246 8.54375 6.963 8.36076 6.29777 7.76856C5.77962 7.30943 5.42862 6.74051 5.32833 6.56751C5.22804 6.39451 5.3183 6.30135 5.40522 6.21485C5.4821 6.13833 5.57905 6.0119 5.66596 5.91209C5.75288 5.81228 5.78296 5.73909 5.83979 5.62264C5.89662 5.5062 5.86988 5.40639 5.82642 5.31989C5.78296 5.23671 5.44199 4.37835 5.28822 4.03567Z" fill="white"/>
<defs>
<linearGradient id="paint0_linear_2091_2775" x1="7.00143" y1="13.7565" x2="7.00143" y2="0.242447" gradientUnits="userSpaceOnUse">
<stop stop-color="#20B038"/>
<stop offset="1" stop-color="#60D66A"/>
</linearGradient>
<linearGradient id="paint1_linear_2091_2775" x1="7.00136" y1="13.9987" x2="7.00136" y2="0" gradientUnits="userSpaceOnUse">
<stop stop-color="#F9F9F9"/>
<stop offset="1" stop-color="white"/>
</linearGradient>
</defs>
</svg>
